<mxfile host="app.diagrams.net" agent="Mozilla/5.0 (Windows NT 10.0; Win64; x64) AppleWebKit/537.36 (KHTML, like Gecko) Chrome/127.0.0.0 Safari/537.36" version="24.7.7">
  <diagram name="Page-1" id="xazMUkrdug9q_lezwX8n">
    <mxGraphModel dx="1050" dy="653" grid="1" gridSize="10" guides="1" tooltips="1" connect="1" arrows="1" fold="1" page="1" pageScale="1" pageWidth="850" pageHeight="1100" math="0" shadow="0">
      <root>
        <mxCell id="0" />
        <mxCell id="1" parent="0" />
        <mxCell id="ookyHPaYza2Kq9s-CfI7-2" value="&lt;b&gt;&lt;font style=&quot;font-size: 20px;&quot;&gt;Data Pipeline&lt;/font&gt;&lt;/b&gt;" style="rounded=0;whiteSpace=wrap;html=1;" vertex="1" parent="1">
          <mxGeometry x="200" y="211.5" width="120" height="230" as="geometry" />
        </mxCell>
        <mxCell id="ookyHPaYza2Kq9s-CfI7-4" style="edgeStyle=orthogonalEdgeStyle;rounded=0;orthogonalLoop=1;jettySize=auto;html=1;entryX=0;entryY=0.5;entryDx=0;entryDy=0;" edge="1" parent="1" source="ookyHPaYza2Kq9s-CfI7-3" target="ookyHPaYza2Kq9s-CfI7-2">
          <mxGeometry relative="1" as="geometry" />
        </mxCell>
        <mxCell id="ookyHPaYza2Kq9s-CfI7-3" value="&lt;font size=&quot;1&quot; style=&quot;&quot;&gt;&lt;b style=&quot;font-size: 20px;&quot;&gt;Synthetic Data Generator&lt;/b&gt;&lt;/font&gt;" style="rounded=0;whiteSpace=wrap;html=1;" vertex="1" parent="1">
          <mxGeometry x="20" y="286.5" width="160" height="80" as="geometry" />
        </mxCell>
        <mxCell id="ookyHPaYza2Kq9s-CfI7-21" style="edgeStyle=orthogonalEdgeStyle;rounded=0;orthogonalLoop=1;jettySize=auto;html=1;entryX=0;entryY=0.5;entryDx=0;entryDy=0;" edge="1" parent="1" source="ookyHPaYza2Kq9s-CfI7-9" target="ookyHPaYza2Kq9s-CfI7-20">
          <mxGeometry relative="1" as="geometry" />
        </mxCell>
        <mxCell id="ookyHPaYza2Kq9s-CfI7-9" value="&lt;font style=&quot;font-size: 20px;&quot;&gt;&lt;b&gt;PostgreSQL&lt;/b&gt;&lt;/font&gt;" style="shape=cylinder3;whiteSpace=wrap;html=1;boundedLbl=1;backgroundOutline=1;size=15;" vertex="1" parent="1">
          <mxGeometry x="360" y="200" width="130" height="100" as="geometry" />
        </mxCell>
        <mxCell id="ookyHPaYza2Kq9s-CfI7-10" value="&lt;b style=&quot;font-size: 20px;&quot;&gt;MongoDB&lt;/b&gt;" style="shape=cylinder3;whiteSpace=wrap;html=1;boundedLbl=1;backgroundOutline=1;size=15;" vertex="1" parent="1">
          <mxGeometry x="360" y="341.5" width="130" height="100" as="geometry" />
        </mxCell>
        <mxCell id="ookyHPaYza2Kq9s-CfI7-11" style="edgeStyle=orthogonalEdgeStyle;rounded=0;orthogonalLoop=1;jettySize=auto;html=1;entryX=0;entryY=0;entryDx=0;entryDy=67.5;entryPerimeter=0;" edge="1" parent="1" source="ookyHPaYza2Kq9s-CfI7-2" target="ookyHPaYza2Kq9s-CfI7-9">
          <mxGeometry relative="1" as="geometry" />
        </mxCell>
        <mxCell id="ookyHPaYza2Kq9s-CfI7-12" style="edgeStyle=orthogonalEdgeStyle;rounded=0;orthogonalLoop=1;jettySize=auto;html=1;entryX=0;entryY=0.5;entryDx=0;entryDy=0;entryPerimeter=0;" edge="1" parent="1" source="ookyHPaYza2Kq9s-CfI7-2" target="ookyHPaYza2Kq9s-CfI7-10">
          <mxGeometry relative="1" as="geometry" />
        </mxCell>
        <mxCell id="ookyHPaYza2Kq9s-CfI7-13" value="" style="image;aspect=fixed;html=1;points=[];align=center;fontSize=12;image=img/lib/azure2/general/Dashboard.svg;" vertex="1" parent="1">
          <mxGeometry x="550" y="262.25" width="182.05" height="128.5" as="geometry" />
        </mxCell>
        <mxCell id="ookyHPaYza2Kq9s-CfI7-14" value="&lt;b style=&quot;text-wrap: wrap; font-size: 20px;&quot;&gt;Streamlit&lt;/b&gt;" style="text;html=1;align=center;verticalAlign=middle;resizable=0;points=[];autosize=1;strokeColor=none;fillColor=none;" vertex="1" parent="1">
          <mxGeometry x="586.03" y="390.75" width="110" height="40" as="geometry" />
        </mxCell>
        <mxCell id="ookyHPaYza2Kq9s-CfI7-17" value="&lt;font style=&quot;font-size: 16px;&quot;&gt;Data generated by the Data Generator is sent via APIs, stored in databases, and visualized using Streamlit&lt;/font&gt;" style="html=1;shadow=0;dashed=0;align=center;verticalAlign=middle;shape=mxgraph.arrows2.arrow;dy=0;dx=10;notch=0;" vertex="1" parent="1">
          <mxGeometry x="20" y="460" width="790" height="30" as="geometry" />
        </mxCell>
        <mxCell id="ookyHPaYza2Kq9s-CfI7-18" style="edgeStyle=orthogonalEdgeStyle;rounded=0;orthogonalLoop=1;jettySize=auto;html=1;entryX=0.004;entryY=0.507;entryDx=0;entryDy=0;entryPerimeter=0;" edge="1" parent="1" source="ookyHPaYza2Kq9s-CfI7-10" target="ookyHPaYza2Kq9s-CfI7-13">
          <mxGeometry relative="1" as="geometry" />
        </mxCell>
        <mxCell id="ookyHPaYza2Kq9s-CfI7-20" value="&lt;span style=&quot;font-size: 20px;&quot;&gt;&lt;b&gt;Future Work: Data Analytics&lt;/b&gt;&lt;/span&gt;" style="rounded=1;whiteSpace=wrap;html=1;" vertex="1" parent="1">
          <mxGeometry x="530" y="180" width="280" height="60" as="geometry" />
        </mxCell>
      </root>
    </mxGraphModel>
  </diagram>
</mxfile>
